<svg width="28" height="28" viewBox="0 0 28 28" fill="none" xmlns="http://www.w3.org/2000/svg">
<path d="M22.5888 0H5.41125C2.42747 0 0 2.42695 0 5.41079V11.1266V22.5892C0 25.5731 2.42747 28 5.41125 28H22.5893C25.5731 28 28 25.5731 28 22.5892V11.126V5.41023C27.9994 2.42638 25.5725 0 22.5888 0ZM24.1408 3.22671L24.7598 3.22445V3.84065V7.97047L20.0297 7.98572L20.0133 3.24026L24.1408 3.22671ZM10.0036 11.126C10.9004 9.88515 12.3553 9.07127 14 9.07127C15.6447 9.07127 17.0996 9.88515 17.9953 11.126C18.5787 11.9359 18.9284 12.9266 18.9284 13.9997C18.9284 16.717 16.7155 18.9276 13.9994 18.9276C11.2817 18.9276 9.07108 16.717 9.07108 13.9997C9.07165 12.9266 9.42012 11.9359 10.0036 11.126ZM25.2715 22.5886C25.2715 24.069 24.0679 25.2714 22.5888 25.2714H5.41125C3.9315 25.2714 2.72793 24.069 2.72793 22.5886V11.126H6.90737C6.54647 12.0139 6.34371 12.9836 6.34371 13.9997C6.34371 18.2205 9.77763 21.6567 14 21.6567C18.2218 21.6567 21.6557 18.2205 21.6557 13.9997C21.6557 12.9836 21.4518 12.0139 21.0909 11.126H25.2715V22.5886Z" fill="white"/>
</svg>
