<svg width="36" height="34" viewBox="0 0 36 34" fill="none" xmlns="http://www.w3.org/2000/svg">
<path fill-rule="evenodd" clip-rule="evenodd" d="M1.02802 33.6435H8.49304V11.1844H1.02802V33.6435ZM4.711 8.11646H4.76105C7.36304 8.11646 8.98505 6.39148 8.98505 4.23645C8.935 2.03345 7.36401 0.356445 4.81 0.356445C2.25702 0.356445 0.587036 2.03345 0.587036 4.23645C0.587036 6.39148 2.20703 8.11646 4.711 8.11646ZM27.947 33.6435H35.412H35.413V20.7635C35.413 13.8644 31.73 10.6534 26.819 10.6534C22.856 10.6534 21.082 12.8325 20.09 14.3625V11.1835H12.625C12.723 13.2885 12.625 33.6425 12.625 33.6425H20.09V21.0995C20.09 20.4275 20.138 19.7574 20.335 19.2784C20.876 17.9365 22.104 16.5475 24.166 16.5475C26.867 16.5475 27.947 18.6075 27.947 21.6255V33.6435ZM20.0891 14.4405V14.3635C20.073 14.3895 20.056 14.4155 20.039 14.4405H20.0891Z" fill="white"/>
</svg>
