<svg width="35" height="28" viewBox="0 0 35 28" fill="none" xmlns="http://www.w3.org/2000/svg">
<path d="M3.5 28C2.5375 28 1.71383 27.6576 1.029 26.9728C0.343 26.2868 0 25.4625 0 24.5V3.5C0 2.5375 0.343 1.71383 1.029 1.029C1.71383 0.343 2.5375 0 3.5 0H31.5C32.4625 0 33.2868 0.343 33.9728 1.029C34.6576 1.71383 35 2.5375 35 3.5V24.5C35 25.4625 34.6576 26.2868 33.9728 26.9728C33.2868 27.6576 32.4625 28 31.5 28H3.5ZM17.5 15.75L3.5 7V24.5H31.5V7L17.5 15.75ZM17.5 12.25L31.5 3.5H3.5L17.5 12.25ZM3.5 7V3.5V24.5V7Z" fill="white"/>
</svg>
